HIERARCHY
ROOT joint_Root
{
	OFFSET 0.0 0.0 0.0
	CHANNELS 6 Xposition Yposition Zposition Zrotation Xrotation Yrotation 
	JOINT Hips
	{
		OFFSET 4.5925 91.4895 -427.239
		CHANNELS 6 Xposition Yposition Zposition Zrotation Xrotation Yrotation 
		JOINT Spine
		{
			OFFSET 15.7357 0.0 0.0
			CHANNELS 6 Xposition Yposition Zposition Zrotation Xrotation Yrotation 
			JOINT Chest
			{
				OFFSET 8.98455 -0.406207 0.0
				CHANNELS 6 Xposition Yposition Zposition Zrotation Xrotation Yrotation 
				JOINT Neck
				{
					OFFSET 16.3773 0.0 0.0
					CHANNELS 6 Xposition Yposition Zposition Zrotation Xrotation Yrotation 
					JOINT Head
					{
						OFFSET 6.45672 0.0 0.0
						CHANNELS 6 Xposition Yposition Zposition Zrotation Xrotation Yrotation 
						End Site
						{
							OFFSET 0.0 0.0 0.0
						}
					}
				}
				JOINT Shoulder_L
				{
					OFFSET 12.9942 -0.242716 4.98039
					CHANNELS 6 Xposition Yposition Zposition Zrotation Xrotation Yrotation 
					JOINT UpperArm_L
					{
						OFFSET 5.34809 0.0 0.0
						CHANNELS 6 Xposition Yposition Zposition Zrotation Xrotation Yrotation 
						JOINT LowerArm_L
						{
							OFFSET 24.3286 1.87007e-05 0.0
							CHANNELS 6 Xposition Yposition Zposition Zrotation Xrotation Yrotation 
							JOINT Hand_L
							{
								OFFSET 22.2916 0.0 0.0
								CHANNELS 6 Xposition Yposition Zposition Zrotation Xrotation Yrotation 
								End Site
								{
									OFFSET 0.0 0.0 0.0
								}
							}
						}
					}
				}
				JOINT Shoulder_R
				{
					OFFSET 12.9945 -0.242716 -4.98039
					CHANNELS 6 Xposition Yposition Zposition Zrotation Xrotation Yrotation 
					JOINT UpperArm_R
					{
						OFFSET -5.34813 0.0 0.0
						CHANNELS 6 Xposition Yposition Zposition Zrotation Xrotation Yrotation 
						JOINT LowerArm_R
						{
							OFFSET -24.3289 0.000322201 0.0
							CHANNELS 6 Xposition Yposition Zposition Zrotation Xrotation Yrotation 
							JOINT Hand_R
							{
								OFFSET -22.2915 -0.000108084 0.0
								CHANNELS 6 Xposition Yposition Zposition Zrotation Xrotation Yrotation 
								End Site
								{
									OFFSET 0.0 0.0 0.0
								}
							}
						}
					}
				}
			}
		}
		JOINT UpperLeg_L
		{
			OFFSET -2.19248 -6.46944 0.0
			CHANNELS 6 Xposition Yposition Zposition Zrotation Xrotation Yrotation 
			JOINT LowerLeg_L
			{
				OFFSET 39.0811 0.0 -1.23785e-05
				CHANNELS 6 Xposition Yposition Zposition Zrotation Xrotation Yrotation 
				JOINT Foot_L
				{
					OFFSET 40.9854 0.0 -1.26872e-05
					CHANNELS 6 Xposition Yposition Zposition Zrotation Xrotation Yrotation 
					JOINT Toes_L
					{
						OFFSET 11.7543 0.0 0.0
						CHANNELS 6 Xposition Yposition Zposition Zrotation Xrotation Yrotation 
						End Site
						{
							OFFSET 0.0 0.0 0.0
						}
					}
				}
			}
		}
		JOINT UpperLeg_R
		{
			OFFSET -2.19251 6.46944 0.0
			CHANNELS 6 Xposition Yposition Zposition Zrotation Xrotation Yrotation 
			JOINT LowerLeg_R
			{
				OFFSET -39.0811 -0.00228153 -0.0401928
				CHANNELS 6 Xposition Yposition Zposition Zrotation Xrotation Yrotation 
				JOINT Foot_R
				{
					OFFSET -40.9854 0.0 0.0
					CHANNELS 6 Xposition Yposition Zposition Zrotation Xrotation Yrotation 
					JOINT Toes_R
					{
						OFFSET -11.7543 0.0 0.0
						CHANNELS 6 Xposition Yposition Zposition Zrotation Xrotation Yrotation 
						End Site
						{
							OFFSET 0.0 0.0 0.0
						}
					}
				}
			}
		}
	}
}
MOTION
Frames:	5
Frame Time:	0.0333333
0.000000 0.000000 0.000000 0.000000 0.000000 -0.000000 5.191930 91.151200 1.521960 86.297700 -25.554700 2.441270 15.735700 0.000005 -0.000001 69.869000 85.047900 -65.649300 8.984550 -0.406207 -0.000000 1.684290 -3.630360 8.487600 16.377300 -0.000001 -0.000001 5.855700 1.778570 -1.827250 6.456720 -0.000001 -0.000000 -0.587246 4.032860 4.300150 12.994200 -0.242716 4.980390 -82.396000 -15.158200 -62.953900 5.348090 -0.000007 -0.000001 -23.095200 -70.064900 -66.464200 24.328600 0.000019 0.000005 5.846940 7.074160 -39.743700 22.291600 -0.000001 0.000005 19.080400 5.420180 -3.605130 12.994500 -0.242716 -4.980390 87.920200 6.889880 -73.157300 -5.348130 -0.000001 -0.000004 -58.340700 19.877800 3.622670 -24.328900 0.000322 -0.000009 0.167767 0.245395 -34.534300 -22.291500 -0.000108 -0.000004 19.852000 5.430080 -3.941690 -2.192480 -6.469440 -0.000000 -177.568000 -22.912000 -2.571670 39.081100 -0.000007 -0.000012 -0.148983 0.283085 27.757300 40.985400 -0.000006 -0.000013 0.659561 -7.390570 -72.271700 11.754300 -0.000000 0.000003 -0.000182 -0.001709 -16.642200 -2.192510 6.469440 -0.000001 175.504000 15.397100 172.993000 -39.081100 -0.002282 -0.040193 -0.016290 0.040234 25.973300 -40.985400 0.000008 0.000006 5.563420 30.384500 -67.741900 -11.754300 -0.000006 -0.000006 -0.000840 -0.013103 -17.106100
0.000000 0.000000 0.000000 0.000000 0.000000 -0.000000 5.151270 91.180700 1.483150 86.389400 -25.153800 2.388920 15.735700 0.000005 -0.000001 70.270400 85.088900 -66.179100 8.984550 -0.406207 -0.000000 1.622200 -3.533010 8.227580 16.377300 -0.000001 -0.000001 6.042040 1.763130 -1.885130 6.456720 -0.000001 -0.000000 -0.669717 4.028720 4.468690 12.994200 -0.242716 4.980390 -82.393100 -14.940100 -62.614800 5.348090 -0.000007 -0.000001 -23.019000 -69.732300 -66.576600 24.328600 0.000019 0.000005 5.793910 6.945320 -40.000700 22.291600 -0.000001 0.000005 19.191000 5.420110 -3.602770 12.994500 -0.242716 -4.980390 87.868000 6.973540 -72.953100 -5.348130 -0.000001 -0.000004 -58.103600 19.880600 3.119550 -24.328900 0.000322 -0.000009 0.117322 0.171251 -34.664600 -22.291500 -0.000108 -0.000004 19.768500 5.428430 -3.885150 -2.192480 -6.469440 -0.000000 -177.646000 -22.782100 -2.626630 39.081100 -0.000007 -0.000012 -0.140541 0.268922 27.592200 40.985400 -0.000006 -0.000013 0.735069 -7.095880 -72.144600 11.754300 -0.000000 0.000003 -0.000201 -0.001863 -16.647800 -2.192510 6.469440 -0.000001 175.478000 15.635000 172.976000 -39.081100 -0.002282 -0.040193 -0.015093 0.037877 25.913200 -40.985400 0.000008 0.000006 5.600690 30.184400 -67.716900 -11.754300 -0.000006 -0.000006 -0.000901 -0.013994 -17.142300
0.000000 0.000000 0.000000 0.000000 0.000000 -0.000000 5.073770 91.222800 1.448900 86.502100 -24.561600 2.332470 15.735700 0.000005 -0.000001 70.436700 85.133500 -66.500900 8.984550 -0.406207 -0.000000 1.539460 -3.470890 7.913490 16.377300 -0.000001 -0.000001 6.224010 1.650660 -1.956190 6.456720 -0.000001 -0.000000 -0.710608 3.929130 4.719090 12.994200 -0.242716 4.980390 -82.446600 -14.612000 -62.272500 5.348090 -0.000007 -0.000001 -24.267000 -69.000600 -67.616700 24.328600 0.000019 0.000005 5.653970 6.560370 -40.910100 22.291600 -0.000001 0.000005 19.572000 5.419460 -3.580730 12.994500 -0.242716 -4.980390 87.796800 7.106640 -72.726100 -5.348130 -0.000001 -0.000004 -58.037300 19.714700 2.655500 -24.328900 0.000322 -0.000009 0.031795 0.048099 -34.365900 -22.291500 -0.000108 -0.000004 19.833100 5.428550 -3.889520 -2.192480 -6.469440 -0.000000 -177.730000 -22.403000 -2.710690 39.081100 -0.000007 -0.000012 -0.141126 0.272331 27.394000 40.985400 -0.000006 -0.000013 0.761425 -6.874860 -71.965200 11.754300 -0.000000 0.000003 -0.000165 -0.001574 -16.637300 -2.192510 6.469440 -0.000001 175.463000 15.953700 173.006000 -39.081100 -0.002282 -0.040193 -0.013515 0.034802 25.802600 -40.985400 0.000008 0.000006 5.633190 29.859800 -67.685300 -11.754300 -0.000006 -0.000006 -0.001027 -0.015794 -17.215500
0.000000 0.000000 0.000000 0.000000 0.000000 -0.000000 4.949130 91.267400 1.419350 86.653400 -23.765700 2.286330 15.735700 0.000005 -0.000001 70.229700 85.166600 -66.483400 8.984550 -0.406207 -0.000000 1.458540 -3.474100 7.532120 16.377300 -0.000001 -0.000001 6.314930 1.495560 -2.054630 6.456720 -0.000001 -0.000000 -0.857982 3.797280 4.992660 12.994200 -0.242716 4.980390 -82.658700 -13.930600 -61.846400 5.348090 -0.000007 -0.000001 -26.262100 -67.718900 -69.065000 24.328600 0.000019 0.000005 5.215850 5.683090 -42.671500 22.291600 -0.000001 0.000005 20.511300 5.417730 -3.522770 12.994500 -0.242716 -4.980390 87.712500 7.226560 -72.383100 -5.348130 -0.000001 -0.000004 -58.186700 19.582300 2.091650 -24.328900 0.000322 -0.000009 -0.012244 -0.016804 -33.563200 -22.291500 -0.000108 -0.000004 19.820900 5.424000 -3.734220 -2.192480 -6.469440 -0.000000 -177.791000 -22.135200 -2.759780 39.081100 -0.000007 -0.000012 -0.132914 0.259104 27.156800 40.985400 -0.000006 -0.000013 0.852036 -6.336560 -71.772500 11.754300 -0.000000 0.000003 -0.000212 -0.001945 -16.650800 -2.192510 6.469440 -0.000001 175.413000 16.425600 173.118000 -39.081100 -0.002282 -0.040193 -0.012419 0.032760 25.647700 -40.985400 0.000008 0.000006 5.699310 29.528500 -67.748800 -11.754300 -0.000006 -0.000006 -0.000813 -0.012716 -17.090400
0.000000 0.000000 0.000000 0.000000 0.000000 -0.000000 4.775340 91.296800 1.364110 86.807700 -22.788600 2.288150 15.735700 0.000005 -0.000001 69.794300 85.167200 -66.258900 8.984550 -0.406207 -0.000000 1.426580 -3.532140 7.110480 16.377300 -0.000001 -0.000001 6.324180 1.302350 -2.167340 6.456720 -0.000001 -0.000000 -1.090640 3.616580 5.198830 12.994200 -0.242716 4.980390 -82.937100 -13.254500 -61.613600 5.348090 -0.000007 -0.000001 -28.262500 -65.866400 -69.214700 24.328600 0.000019 0.000005 4.986940 4.787820 -46.274300 22.291600 -0.000001 0.000005 21.552200 5.420310 -3.609000 12.994500 -0.242716 -4.980390 87.607900 7.401530 -72.033600 -5.348130 -0.000001 -0.000004 -58.548600 19.430600 1.498480 -24.328900 0.000322 -0.000009 -0.255640 -0.403461 -32.252200 -22.291500 -0.000108 -0.000004 19.992100 5.424480 -3.750690 -2.192480 -6.469440 -0.000000 -177.758000 -21.845200 -2.837750 39.081100 -0.000007 -0.000012 -0.132185 0.258737 27.062000 40.985400 -0.000006 -0.000013 0.923879 -5.643580 -71.620400 11.754300 -0.000000 0.000003 -0.000215 -0.001970 -16.651700 -2.192510 6.469440 -0.000001 175.337000 17.050800 173.278000 -39.081100 -0.002282 -0.040193 -0.020379 0.049578 25.540300 -40.985400 0.000008 0.000006 5.555210 29.228200 -67.741600 -11.754300 -0.000006 -0.000006 -0.000793 -0.012426 -17.078600
